<?xml version="1.0" encoding="utf-8"?>
<!-- Generator: Adobe Illustrator 23.0.5, SVG Export Plug-In . SVG Version: 6.00 Build 0)  -->
<svg version="1.1" id="Layer_1" xmlns="http://www.w3.org/2000/svg" xmlns:xlink="http://www.w3.org/1999/xlink" x="0px" y="0px"
	 viewBox="0 0 30 30" style="enable-background:new 0 0 30 30;" xml:space="preserve">
<g>
	<path d="M22.5,18.9c0.2,0.1,0.3,0.2,0.5,0.3c2.2,2.1,4.3,4.3,6.4,6.4c0.9,0.9,1.1,2.1,0.5,3.1c-0.7,1.2-2.4,1.5-3.6,0.7
		c-0.2-0.2-0.4-0.4-0.6-0.5c-2.1-2.1-4.2-4.2-6.2-6.2c-0.1-0.1-0.2-0.2-0.3-0.3c-3.2,2.1-6.7,2.8-10.5,1.7c-2.8-0.8-5.1-2.5-6.7-5
		C-1.5,14.1-0.7,7.5,3.6,3.5c4.7-4.4,11.2-4.7,16.2-0.8C24.3,6.3,26,13.1,22.5,18.9z M3.8,12.3c0,4.6,3.7,8.3,8.3,8.3
		c4.6,0,8.3-3.6,8.3-8.3c0-4.6-3.7-8.3-8.3-8.3C7.6,4,3.8,7.7,3.8,12.3z"/>
</g>
</svg>
