<?xml version="1.0" encoding="utf-8"?>
<!-- Generator: Adobe Illustrator 23.0.5, SVG Export Plug-In . SVG Version: 6.00 Build 0)  -->
<svg version="1.1" id="Layer_1" xmlns="http://www.w3.org/2000/svg" xmlns:xlink="http://www.w3.org/1999/xlink" x="0px" y="0px"
	 viewBox="0 0 30 30" style="enable-background:new 0 0 30 30;" xml:space="preserve">
<g>
	<path d="M9.6,7.6c0-1.1,0-1.1,0-2.2c0-2.3,1.4-4.2,3.5-5c3.1-1.2,6.6,0.8,7.1,4.1c0.2,1.1,0.1,1.2,0.1,2.3c0,0.3,0,0.5,0,0.9
		c0.4,0,0.8,0,1.2,0c1,0,2.9,0,3.9,0c0.9,0,1.3,0.4,1.3,1.2c0.2,3.9,0.4,8.8,0.6,12.6c0.1,1.7,0.2,3.4,0.3,5.1
		c0.1,1.9-1.4,3.5-3.4,3.5c-5.5,0-13.1,0-18.6,0c-2,0-3.5-1.6-3.3-3.4c0.2-2.8,0.3-5.5,0.5-8.3c0.1-2.5,0.3-6,0.4-8.6
		c0-0.3,0-0.7,0.1-1C3.4,8,3.7,7.7,4.5,7.7c1.2,0,3.4,0,4.6,0C9.3,7.6,9.4,7.6,9.6,7.6z M18.2,7.5c0-0.1,0-0.3,0-0.4
		c0-1,0-0.9,0-1.9c0-1.6-1.2-2.9-2.8-3.1C13.9,2,12.2,2.9,12,4.4c-0.2,1.3-0.2,1.7-0.2,3.1C13.9,7.5,16,7.5,18.2,7.5z"/>
</g>
</svg>
