<?xml version="1.0" encoding="utf-8"?>
<!-- Generator: Adobe Illustrator 23.0.5, SVG Export Plug-In . SVG Version: 6.00 Build 0)  -->
<svg version="1.1" id="Layer_1" xmlns="http://www.w3.org/2000/svg" xmlns:xlink="http://www.w3.org/1999/xlink" x="0px" y="0px"
	 viewBox="0 0 30 30" style="enable-background:new 0 0 30 30;" xml:space="preserve">
<g>
	<path d="M15.2,23.1c0-0.2,0-0.4,0-0.6c0-4.5,0-8.9,0-13.4c0-1.5,0.6-2.6,1.9-3.3c1.9-1.1,3.8-2.2,5.7-3.3c0.1-0.1,0.2-0.1,0.4-0.3
		c-0.2,0-0.3,0-0.5,0c-4,0-8,0-12,0c-0.9,0-1.3,0.4-1.3,1.3c0,1.2,0,2.5,0,3.7c0,0.8-0.4,1.3-1.1,1.2c-0.6,0-1-0.5-1-1.2
		c0-1.3,0-2.6,0-3.9C7.2,1.4,8.6,0,10.6,0c4.8,0,9.7,0,14.5,0c1.9,0,3.3,1.4,3.3,3.3c0,6.5,0,13,0,19.5c0,1.3-0.6,2.3-1.7,2.9
		c-2.2,1.3-4.4,2.5-6.6,3.8c-2.3,1.3-4.9-0.2-5-2.9c0-0.4,0-0.9,0-1.4c-0.2,0-0.4,0-0.6,0c-1.4,0-2.8,0-4.2,0
		c-1.8,0-3.2-1.4-3.3-3.2c0-1.2,0-2.4,0-3.6c0-0.7,0.4-1.2,1.1-1.2c0.6,0,1.1,0.5,1.1,1.2c0,1.1,0,2.2,0,3.4c0,0.8,0.4,1.3,1.3,1.3
		C12.1,23.1,13.6,23.1,15.2,23.1z"/>
	<path d="M10.8,11.4c-0.3-0.3-0.7-0.6-1-0.9C9.2,9.9,9.2,9.3,9.7,8.8c0.5-0.5,1.1-0.4,1.6,0.1c0.9,0.9,1.9,1.9,2.8,2.8
		c0.6,0.6,0.6,1.2,0,1.7c-0.9,0.9-1.9,1.9-2.8,2.8c-0.5,0.5-1.2,0.5-1.6,0.1c-0.4-0.4-0.4-1.1,0.1-1.6c0.3-0.3,0.6-0.6,0.9-0.9
		c0,0,0-0.1,0.1-0.2c-0.2,0-0.4,0-0.5,0c-2.5,0-5,0-7.5,0c-0.8,0-1.3-0.6-1.1-1.3c0.1-0.5,0.5-0.9,1.2-0.9c2.5,0,4.9,0,7.4,0
		c0.2,0,0.3,0,0.5,0C10.7,11.5,10.8,11.4,10.8,11.4z"/>
</g>
</svg>
