<?xml version="1.0" encoding="utf-8"?>
<!-- Generator: Adobe Illustrator 23.0.5, SVG Export Plug-In . SVG Version: 6.00 Build 0)  -->
<svg version="1.1" id="Layer_1" xmlns="http://www.w3.org/2000/svg" xmlns:xlink="http://www.w3.org/1999/xlink" x="0px" y="0px"
	 viewBox="0 0 30 30" style="enable-background:new 0 0 30 30;" xml:space="preserve">
<g>
	<path d="M15,0c8.3,0,15,6.8,15,15s-6.8,15-15,15S0,23.3,0,15S6.8,0,15,0z M15,28.2c7.3,0,13.2-5.9,13.3-13.2
		c0-7.3-5.9-13.3-13.2-13.3C7.7,1.7,1.8,7.6,1.8,15C1.7,22.3,7.6,28.2,15,28.2z"/>
	<path d="M20,7.6c-0.1,0.5-0.2,0.8-0.2,1.1c0,0.3,0,0.7-0.1,1c-0.1,0.7-0.2,1.4-0.5,2c-0.4,0.8-0.9,1.6-1.4,2.3
		c-0.1,0.2-0.1,0.4-0.1,0.7c-0.5,1.1-1.2,2.1-2.3,2.6c-0.2,0.1-0.6,0.1-0.8,0c-1.3-0.7-2.1-1.7-2.4-3.1c0-0.2-0.2-0.3-0.2-0.4
		c-0.5-1.1-1.1-2.2-1.6-3.3c-0.2-0.3-0.1-0.7-0.1-1.1c0-0.2,0-0.4-0.1-0.7c-0.4-1.4,0-2.8,0.8-4c0.7-1,1.8-1.4,2.9-1.6
		c1.2-0.1,2.4-0.1,3.6,0.5C19.3,4.5,19.8,6,20,7.6z"/>
	<path d="M16.3,18.6c0.5,0.6,0.8,1.1,1.3,1.7c0.3-1.7,0.6-3.2,0.8-4.7c1,0.9,2.2,1.3,3.4,1.7c1.5,0.5,2.5,1.3,3.1,2.8
		c0.4,0.8,0.3,1.3-0.2,2c-2,2.6-4.4,4.1-7.6,4.8c-0.1,0-0.4,0-0.6,0.1c0-0.1-0.1-0.2-0.1-0.4c-0.2-2.1-0.5-4.3-0.6-6.4
		C15.9,19.7,16.2,19.2,16.3,18.6z"/>
	<path d="M13.3,26.9c-1.2-0.1-2.3-0.4-3.2-0.9c-2.3-1-4-2.6-5.3-4.6c-0.1-0.2-0.1-0.5-0.1-0.7c0.2-0.5,0.4-1,0.7-1.5
		c0.4-0.9,1.2-1.4,2.2-1.7c0.5-0.1,1-0.3,1.5-0.5c0.8-0.4,1.6-0.8,2.4-1.2c0.2,1.4,0.5,3,0.8,4.6c0.5-0.6,0.8-1.1,1.1-1.5
		c0.8,0.8,0.4,1.8,0.3,2.7c-0.2,1.7-0.3,3.4-0.4,5.1C13.4,26.6,13.4,26.7,13.3,26.9z"/>
</g>
</svg>
