<?xml version="1.0" encoding="utf-8"?>
<!-- Generator: Adobe Illustrator 23.0.5, SVG Export Plug-In . SVG Version: 6.00 Build 0)  -->
<svg version="1.1" id="Layer_1" xmlns="http://www.w3.org/2000/svg" xmlns:xlink="http://www.w3.org/1999/xlink" x="0px" y="0px"
	 viewBox="0 0 40 40" style="enable-background:new 0 0 40 40;" xml:space="preserve">
<g>
	<path d="M20,1c10.5,0,19,8.5,19,19s-8.5,19-19,19S1,30.5,1,20S9.5,1,20,1 M20,0C9,0,0,9,0,20s9,20,20,20s20-9,20-20S31,0,20,0L20,0
		z"/>
</g>
<g>
	<path d="M26.6,10.6c-4.4,0-8.8,0-13.3,0c0.1,0.1,0.1,0.2,0.2,0.3c0.2,0.2,0.5,0.5,0.7,0.7c0.3,0.4,0.3,0.8,0,1.2
		c-0.3,0.3-0.8,0.3-1.1-0.1c-0.8-0.8-1.5-1.5-2.3-2.3c-0.4-0.4-0.4-0.8,0-1.2c0.7-0.8,1.5-1.5,2.2-2.2c0.4-0.4,0.8-0.4,1.2-0.1
		c0.3,0.3,0.3,0.8,0,1.2c-0.3,0.3-0.6,0.6-1,0.9c4.5,0,8.9,0,13.4,0c-0.3-0.3-0.6-0.6-0.9-1c-0.4-0.5-0.3-1.2,0.3-1.3
		c0.2,0,0.6,0,0.8,0.2c0.8,0.7,1.6,1.5,2.3,2.3c0.3,0.4,0.3,0.8,0,1.2c-0.8,0.8-1.5,1.5-2.3,2.3c-0.3,0.3-0.8,0.3-1.1,0
		c-0.3-0.3-0.3-0.8,0-1.1c0.3-0.3,0.6-0.6,0.9-0.9C26.7,10.7,26.6,10.6,26.6,10.6z"/>
</g>
<circle cx="20" cy="23.9" r="9.4"/>
</svg>
