<?xml version="1.0" encoding="utf-8"?>
<!-- Generator: Adobe Illustrator 23.0.5, SVG Export Plug-In . SVG Version: 6.00 Build 0)  -->
<svg version="1.1" id="Layer_1" xmlns="http://www.w3.org/2000/svg" xmlns:xlink="http://www.w3.org/1999/xlink" x="0px" y="0px"
	 viewBox="0 0 40 40" style="enable-background:new 0 0 40 40;" xml:space="preserve">
<g>
	<path d="M20,1c10.5,0,19,8.5,19,19s-8.5,19-19,19S1,30.5,1,20S9.5,1,20,1 M20,0C9,0,0,9,0,20s9,20,20,20s20-9,20-20S31,0,20,0L20,0
		z"/>
</g>
<g>
	<path d="M16.1,29.4c-2.8,0-5.6,0-8.4,0c-0.8,0-1-0.3-1-1c0-5.6,0-11.2,0-16.8c0-0.8,0.3-1,1-1c5.6,0,11.2,0,16.8,0c0.7,0,1,0.3,1,1
		c0,5.6,0,11.2,0,16.9c0,0.7-0.3,1-1,1C21.7,29.4,18.9,29.4,16.1,29.4z"/>
	<path d="M29.4,26.6c0-4.4,0-8.8,0-13.3c-0.1,0.1-0.2,0.1-0.3,0.2c-0.2,0.2-0.5,0.5-0.7,0.7c-0.4,0.3-0.8,0.3-1.2,0
		c-0.3-0.3-0.3-0.8,0.1-1.1c0.8-0.8,1.5-1.5,2.3-2.3c0.4-0.4,0.8-0.4,1.2,0c0.8,0.7,1.5,1.5,2.2,2.2c0.4,0.4,0.4,0.8,0.1,1.2
		c-0.3,0.3-0.8,0.3-1.2,0c-0.3-0.3-0.6-0.6-0.9-1c0,4.5,0,8.9,0,13.4c0.3-0.3,0.6-0.6,1-0.9c0.5-0.4,1.2-0.3,1.3,0.3
		c0,0.2,0,0.6-0.2,0.8c-0.7,0.8-1.5,1.6-2.3,2.3c-0.4,0.3-0.8,0.3-1.2,0c-0.8-0.8-1.5-1.5-2.3-2.3c-0.3-0.3-0.3-0.8,0-1.1
		c0.3-0.3,0.8-0.3,1.1,0c0.3,0.3,0.6,0.6,0.9,0.9C29.3,26.7,29.4,26.6,29.4,26.6z"/>
</g>
</svg>
