<?xml version="1.0" encoding="utf-8"?>
<!-- Generator: Adobe Illustrator 23.0.5, SVG Export Plug-In . SVG Version: 6.00 Build 0)  -->
<svg version="1.1" id="Layer_1" xmlns="http://www.w3.org/2000/svg" xmlns:xlink="http://www.w3.org/1999/xlink" x="0px" y="0px"
	 viewBox="0 0 40 40" style="enable-background:new 0 0 40 40;" xml:space="preserve">
<g>
	<path d="M20,1c10.5,0,19,8.5,19,19s-8.5,19-19,19S1,30.5,1,20S9.5,1,20,1 M20,0C9,0,0,9,0,20s9,20,20,20s20-9,20-20S31,0,20,0L20,0
		z"/>
</g>
<g>
	<path d="M29.4,18c0,0.2,0,0.4,0,0.6c0,2.9,0,5.9,0,8.8c0,1.1-0.4,1.8-1.4,2.2c-2.2,1.1-4.4,2.2-6.6,3.3c-0.2,0.1-0.3,0.1-0.5,0.2
		c0-0.2,0-0.4,0-0.5c0-3.3,0-6.6,0-9.9c0-0.4,0.1-0.6,0.5-0.7c2.5-1.2,5-2.5,7.5-3.7C29,18.2,29.2,18.1,29.4,18z"/>
	<path d="M19,33.2c-0.5-0.3-1-0.5-1.4-0.7c-2-1-3.9-2-5.9-3c-0.7-0.4-1.1-0.9-1.1-1.7c0-3.2,0-6.3,0-9.5c0-0.1,0-0.1,0-0.3
		c1.1,0.5,2.1,1,3.1,1.6c1.6,0.8,3.3,1.6,4.9,2.4c0.2,0.1,0.4,0.3,0.4,0.5c0,3.5,0,7,0,10.5C19,33.1,19,33.1,19,33.2z"/>
	<path d="M11.5,16.3c2.6-1.3,5.2-2.6,7.8-3.9c0.5-0.3,1.1-0.3,1.6,0c2.5,1.3,5,2.5,7.5,3.8c0,0,0,0,0.1,0.1c-1,0.5-2,1-3,1.5
		c-1.7,0.9-3.4,1.7-5.1,2.6c-0.2,0.1-0.5,0.1-0.6,0c-2.7-1.3-5.3-2.6-8-4C11.7,16.4,11.6,16.4,11.5,16.3z"/>
	<path d="M33.5,23.4c-0.5,0-1.1,0-1.6,0c-0.7,0-1.1-0.4-1.1-1c0-0.6,0.4-0.9,1.1-1c0.5,0,1,0,1.6,0c0-0.1,0-0.2,0.1-0.4
		c0.2-0.8,1-1.1,1.7-0.6c0.4,0.4,0.8,0.8,1.2,1.2c0.4,0.4,0.4,0.9,0,1.4c-0.3,0.3-0.6,0.6-0.9,0.9c-0.3,0.3-0.7,0.7-1.2,0.5
		C33.8,24.5,33.6,24.2,33.5,23.4z"/>
	<path d="M21,7.9c0,0.5,0,0.9,0,1.4c0,0.6-0.4,1-1,1c-0.5,0-0.9-0.4-0.9-1c0-0.4,0-0.8,0-1.2C19,8,19,8,18.9,8
		c-0.5-0.1-0.9-0.2-1.1-0.7C17.7,6.7,18,6.4,18.4,6c0.3-0.3,0.6-0.6,0.9-0.9c0.5-0.4,1-0.5,1.4,0c0.3,0.3,0.6,0.6,1,0.9
		c0.4,0.3,0.6,0.7,0.5,1.2C21.9,7.8,21.5,7.9,21,7.9z"/>
	<path d="M6.5,21.5c0.4,0,0.8,0,1.2,0c0.5,0,0.9,0.4,0.9,0.9c0,0.5-0.4,0.9-0.9,1c-0.4,0-0.8,0-1.2,0c0,0.2,0,0.3,0,0.4
		c-0.1,0.8-1,1.1-1.6,0.6C4.4,24,4,23.6,3.6,23.1c-0.4-0.4-0.3-0.9,0.1-1.4c0.3-0.3,0.6-0.6,1-1c0.3-0.4,0.7-0.6,1.2-0.5
		C6.4,20.5,6.5,20.9,6.5,21.5z"/>
</g>
</svg>
