<?xml version="1.0" encoding="utf-8"?>
<!-- Generator: Adobe Illustrator 23.0.5, SVG Export Plug-In . SVG Version: 6.00 Build 0)  -->
<svg version="1.1" id="Layer_1" xmlns="http://www.w3.org/2000/svg" xmlns:xlink="http://www.w3.org/1999/xlink" x="0px" y="0px"
	 viewBox="0 0 40 40" style="enable-background:new 0 0 40 40;" xml:space="preserve">
<g>
	<path d="M20,1c10.5,0,19,8.5,19,19s-8.5,19-19,19S1,30.5,1,20S9.5,1,20,1 M20,0C9,0,0,9,0,20s9,20,20,20s20-9,20-20S31,0,20,0L20,0
		z"/>
</g>
<g>
	<path d="M18.1,26.3c-4.4,0-8-3.7-8-8.1c0-4.5,3.7-8.1,8.1-8.1c4.4,0,8,3.7,8,8.1C26.3,22.7,22.6,26.3,18.1,26.3z"/>
	<path d="M33,23.1c0.1-0.6,0.2-1.1,0.2-1.6c0.1-0.4,0.3-0.7,0.7-0.6c0.4,0.1,0.6,0.4,0.5,0.8c-0.1,1-0.2,1.9-0.4,2.9
		c0,0.2-0.3,0.5-0.5,0.5c-1,0.2-2,0.3-2.9,0.5c-0.4,0-0.6-0.2-0.7-0.5c0-0.4,0.2-0.6,0.6-0.7c0.5-0.1,1.1-0.1,1.7-0.2
		c-0.7-0.7-1.4-1.3-2-2c-0.2-0.2-0.4-0.4-0.6-0.6c-0.2-0.3-0.3-0.6,0-0.9c0.3-0.3,0.6-0.2,0.9,0c0.7,0.7,1.4,1.4,2.1,2.1
		C32.7,22.8,32.9,22.9,33,23.1z"/>
	<path d="M23.6,32.1c0.1-0.6,0.2-1.1,0.2-1.6c0.1-0.5,0.3-0.7,0.7-0.7c0.4,0.1,0.5,0.3,0.5,0.8c-0.1,0.9-0.2,1.7-0.4,2.6
		c-0.1,0.5-0.3,0.7-0.8,0.8c-0.9,0.1-1.7,0.3-2.6,0.4c-0.5,0.1-0.8-0.1-0.8-0.5c-0.1-0.4,0.2-0.6,0.7-0.7c0.5-0.1,1-0.2,1.6-0.4
		c-0.5-0.5-1.1-1-1.6-1.5c-0.3-0.3-0.6-0.6-0.9-0.9c-0.3-0.3-0.3-0.7-0.1-0.9c0.3-0.3,0.6-0.2,0.9,0.1c0.7,0.7,1.4,1.4,2.1,2.1
		C23.3,31.9,23.4,32,23.6,32.1z"/>
	<path d="M30,31.2c-0.8-0.8-1.5-1.5-2.2-2.2c-0.1-0.1-0.2-0.2-0.3-0.3c-0.3-0.3-0.3-0.7-0.1-0.9c0.3-0.3,0.6-0.2,0.9,0.1
		c0.7,0.7,1.4,1.4,2,2c0.1,0.1,0.2,0.2,0.4,0.4c0.1-0.6,0.2-1.1,0.2-1.6c0.1-0.5,0.3-0.8,0.7-0.7c0.4,0.1,0.5,0.4,0.5,0.9
		c-0.1,0.9-0.2,1.7-0.3,2.6c-0.1,0.5-0.3,0.7-0.8,0.8c-0.9,0.1-1.8,0.3-2.7,0.4c-0.4,0.1-0.7-0.2-0.7-0.5c0-0.4,0.2-0.6,0.6-0.7
		C28.8,31.4,29.3,31.3,30,31.2z"/>
	<path d="M18.8,7.3c0,0.4,0,0.7,0,1.1c0,0.4-0.2,0.6-0.6,0.6c-0.4,0-0.6-0.2-0.6-0.7c0-0.7,0-1.5,0-2.2c0-0.4,0.2-0.6,0.6-0.6
		c0.4,0,0.6,0.2,0.6,0.6C18.8,6.5,18.8,6.9,18.8,7.3z"/>
	<path d="M29.1,17.6c0.4,0,0.7,0,1.1,0c0.4,0,0.6,0.2,0.6,0.6c0,0.4-0.2,0.6-0.6,0.6c-0.7,0-1.5,0-2.2,0c-0.4,0-0.6-0.2-0.6-0.6
		c0-0.4,0.2-0.6,0.6-0.6C28.4,17.6,28.8,17.6,29.1,17.6z"/>
	<path d="M18.8,29.1c0,0.4,0,0.7,0,1.1c0,0.4-0.2,0.6-0.6,0.6c-0.4,0-0.6-0.2-0.6-0.6c0-0.8,0-1.5,0-2.3c0-0.3,0.2-0.6,0.6-0.6
		c0.4,0,0.6,0.2,0.6,0.6C18.8,28.4,18.8,28.8,18.8,29.1z"/>
	<path d="M7.2,18.8c-0.4,0-0.7,0-1.1,0c-0.4,0-0.6-0.2-0.6-0.6c0-0.4,0.2-0.6,0.6-0.6c0.8,0,1.5,0,2.3,0c0.4,0,0.6,0.3,0.6,0.6
		c0,0.3-0.2,0.6-0.6,0.6C8,18.8,7.6,18.8,7.2,18.8z"/>
	<path d="M11.9,25.1c-0.1,0.2-0.2,0.4-0.3,0.5c-0.5,0.5-1,1-1.5,1.5c-0.3,0.3-0.7,0.3-0.9,0.1c-0.3-0.3-0.2-0.6,0.1-0.9
		c0.5-0.5,1-1,1.5-1.5c0.2-0.1,0.5-0.2,0.7-0.1C11.7,24.6,11.8,24.9,11.9,25.1z"/>
	<path d="M27.4,9.6c-0.1,0.2-0.2,0.4-0.3,0.6c-0.5,0.5-0.9,1-1.4,1.4c-0.3,0.3-0.7,0.3-0.9,0.1c-0.3-0.3-0.2-0.6,0.1-0.9
		c0.5-0.5,1-1,1.5-1.5c0.1-0.1,0.5-0.2,0.6-0.1C27.1,9.2,27.2,9.4,27.4,9.6z"/>
	<path d="M27.4,26.8c-0.1,0.1-0.2,0.4-0.4,0.4c-0.2,0.1-0.5,0.1-0.6,0c-0.6-0.5-1.2-1.1-1.7-1.7c-0.2-0.2-0.2-0.5,0.1-0.8
		c0.2-0.2,0.5-0.3,0.8,0c0.6,0.5,1.2,1.1,1.7,1.7C27.3,26.4,27.3,26.6,27.4,26.8z"/>
	<path d="M11.9,11.3c-0.1,0.1-0.2,0.4-0.3,0.4c-0.2,0.1-0.5,0.1-0.7-0.1c-0.6-0.5-1.2-1.1-1.7-1.7C9,9.8,9,9.5,9.2,9.2
		C9.5,9,9.8,9,10,9.2c0.6,0.6,1.2,1.1,1.7,1.7C11.8,11,11.8,11.1,11.9,11.3z"/>
</g>
</svg>
