<?xml version="1.0" encoding="utf-8"?>
<!-- Generator: Adobe Illustrator 23.0.5, SVG Export Plug-In . SVG Version: 6.00 Build 0)  -->
<svg version="1.1" id="Layer_1" xmlns="http://www.w3.org/2000/svg" xmlns:xlink="http://www.w3.org/1999/xlink" x="0px" y="0px"
	 viewBox="0 0 40 40" style="enable-background:new 0 0 40 40;" xml:space="preserve">
<g>
	<path d="M20,1c10.5,0,19,8.5,19,19s-8.5,19-19,19S1,30.5,1,20S9.5,1,20,1 M20,0C9,0,0,9,0,20s9,20,20,20s20-9,20-20S31,0,20,0L20,0
		z"/>
</g>
<g>
	<path d="M14.3,17.5c1-1,2-2.1,3.1-3.1c1.8-1.8,3.5-3.5,5.3-5.3c0.6-0.6,1-0.6,1.6,0c0.5,0.5,1,1,1.5,1.5c-3.5,3.5-7,7-10.4,10.4
		c-1.8-1.6-3.4-3.4-4-6c-0.9-3.6,0.8-7.7,3.9-9.6c4.5-2.8,10.1-1.4,12.7,3.2c0.9,1.5,1.3,3.2,1.1,5c0,0.2,0.1,0.4,0.2,0.5
		c1.3,1.3,4.5,4.5,5.8,5.8c1.3,1.3,1.3,2.7,0,3.9c-2.2,2.2-4.4,4.4-6.6,6.6c-1.2,1.2-2.6,1.2-3.9,0c-2-2-5.9-5.9-7.9-7.9
		c-0.1-0.1-0.2-0.2-0.2-0.2c3.5-3.5,6.9-6.9,10.4-10.4c0.1,0.1,0.2,0.2,0.4,0.3c-0.2-2.9-2.6-5.6-5.5-6.3c-3.2-0.8-6.5,0.7-8.2,3.6
		C12.1,12.2,12.5,15.4,14.3,17.5z"/>
	<path d="M9.9,27.8c-1,0.4-1.4,1.1-1.6,2.1c0,0.2,0,0.4-0.1,0.5C8.2,30.8,7.8,31,7.4,31c-0.4,0-0.7-0.3-0.7-0.8
		c-0.1-1.9,1.2-3.6,3.2-4.2c0-0.5,0-1,0-1.7C9.2,24.6,8.6,24.7,8,25c-0.6,0.3-1,0.7-1.5,1.1c-0.5,0.4-0.9,0.5-1.3,0.1
		c-0.4-0.3-0.3-0.8,0.1-1.3c1.4-1.5,3.2-2.3,5.2-2.3c0.2,0,0.5,0.1,0.7,0.2c0.6,0.4,1.2,0.8,1.7,1.3c0.1,0.1,0.2,0.3,0.2,0.4
		c0,0.9,0,1.8,0,2.8c0,0.1-0.1,0.3-0.2,0.4c-0.6,0.4-1.1,0.8-1.7,1.2c-0.3,0.2-0.6,0.3-0.9,0.2C10,29,9.9,28.7,9.9,28.3
		C9.9,28.2,9.9,28,9.9,27.8z"/>
	<path d="M14.9,27.6c0-1.1,0-2.1,0-3.2c0.4,0,0.8,0,1.2,0c0.1,0,0.2,0.1,0.3,0.1c1,1,2,2,2.9,2.9c0,0,0,0.1,0.1,0.1
		C17.9,27.6,16.4,27.6,14.9,27.6z"/>
</g>
</svg>
