<?xml version="1.0" encoding="utf-8"?>
<!-- Generator: Adobe Illustrator 23.0.5, SVG Export Plug-In . SVG Version: 6.00 Build 0)  -->
<svg version="1.1" id="Layer_1" xmlns="http://www.w3.org/2000/svg" xmlns:xlink="http://www.w3.org/1999/xlink" x="0px" y="0px"
	 viewBox="0 0 858.8 244" style="enable-background:new 0 0 858.8 244;" xml:space="preserve">
<g>
	<g>
		<path d="M210.4,219.5c26.7-7.1,47.5-22.1,60.8-46.6c12.1-22.3,14.4-46.5,13-71.3c-0.2-3-1.5-3.5-4.2-3.2
			c-27.6,2.5-53,11.2-76.2,26.2c-9.3,6-9.8,5.7-13.7-4.8c-1.1-3.1,1.4-3.4,2.8-4.4c12.7-8.4,26-15.6,40.4-20.5
			c3.2-1.1,3.8-2.5,3.3-5.8c-1.9-13.8-5.6-27-10-40.1c-1-3-2.1-3.8-5.3-2.3c-24.7,11.8-47.4,26.5-66.2,46.6
			c-9.7,10.3-17.9,21.9-24.7,34.4c-1.5,2.8-1.5,4.6,1,6.8c5.5,5,10.9,10.3,15.5,16.2c2.1,2.7,3.7,3.3,6.1,0.2
			c4.6-6.1,10.1-11.6,15.8-16.7c2.3-2.1,2.4-3.8,1-6.4c-3.4-6.3-7-12.5-11.5-18.1c-2.3-2.8-1.9-4.6,0.6-7.1
			c6.4-6.4,6.5-6.7,11.3,0.6c12.2,18.5,21.6,38.3,26.2,60.1c0.6,2.6,0.3,4.8-1,7.2c-10.8,19.6-26.1,35.2-43.5,49
			c-1.9,1.5-3.2,1.1-4.8-0.2c-17.3-13.9-32-30-42.9-49.5c-1.3-2.3-1.2-4.3-0.6-6.7c1.2-4.8,2.3-9.7,3.5-14.6
			c0.6-2.7,1.7-3.9,4.2-1.4c1.2,1.2,2.5,2.2,3.9,3.2c3.4,2.4,4.8,5.2,3,9.3c-1.5,3.5-0.3,6.5,1.8,9.6c7.9,11.4,16.3,22.3,26.3,32
			c2.7,2.6,4.5,2.8,7.3,0.1c10.2-10.1,19.1-21.3,27.1-33.2c2.5-3.8,1.5-7.3,0.4-11c-1.1-3.8-1.1-9.8-4.1-10.6c-3.8-1-6.2,4.6-9,7.5
			c-5.7,6-10.7,12.8-15.5,19.6c-1.8,2.5-3,3-5,0c-18-26.3-41.9-45.8-70.4-59.7c-5-2.5-7.6-10.6-4.9-15.4c1.2-2,2.8-0.5,3.9,0
			c8.4,3.2,16.6,6.9,24.2,11.8c4.9,3.1,9.7,6.4,14.3,10c2.7,2.1,3.8,1.5,5.2-1.2c4.9-9.5,11-18.3,18.1-26.3c2.6-2.9,2.3-4.7-0.5-7.3
			c-17.7-16.3-37.7-29-59.4-39.2c-2.6-1.2-3.5-0.2-4.3,2c-9.3,26.7-14.2,53.9-10.5,82.4c3.1,24.1,11.8,45.8,26.4,64.9
			c10.6,13.9,22.7,26.6,34.9,39.1c1.6,1.6,3.6,3,4.2,5.8c-40.7-4.1-78.4-13.9-104.2-48.9c-11.9-16.1-18.5-34.6-21.3-54.3
			c-2.2-15.8-1.9-31.5,0.4-47.3c0.5-3.8,2.2-4.8,5.8-5c12.2-0.5,24.3,0.5,36.2,3.5c3.3,0.8,4.2,0.2,4.6-3.2
			C53,66.5,58.9,48.5,66,30.8c1.4-3.5,3.4-2.3,5.5-1.5c22.3,8.4,42.8,19.9,61.5,34.8c4.7,3.7,9.3,7.5,13.6,11.7
			c2.7,2.7,4.1,2.4,6.8-0.1c21.4-20,45.9-35.1,73.2-45.9c5.1-2,6.8-0.6,8.6,3.9c6.5,16.7,11.9,33.6,14.5,51.3
			c0.5,3.5,1.2,4.4,4.8,3.5c11.4-2.9,23-3.7,34.7-3.5c4.6,0.1,6.7,1.3,7.3,6.2c4.7,37.3,0.1,72.5-23.4,103.3
			c-15.8,20.7-37.4,32.7-62.2,39.2c-12.9,3.4-26,5.3-40.6,7c4.4-4.9,8.1-8.8,11.7-12.8c10.9-11.9,22.1-23.6,31.5-36.8
			c14.3-20,22.1-42.4,24-66.9c0.6-7.1,5.3-11.4,12.4-11.2c2.6,0.1,1.9,1.9,1.8,3.2c-1.3,29.8-9.8,57.3-26.5,82.1
			c-4.7,7.1-10.4,13.4-15.5,20.1c-0.1,0.3-0.2,0.7-0.4,1C209.6,219.7,210,219.6,210.4,219.5z M91.6,219.6c-0.8-0.9-1.5-1.8-2.3-2.7
			c-15-16.7-26.3-35.6-33.2-56.9c-5.5-16.9-8.1-34.3-7.3-52.1c0.1-3.4-0.8-5-4.3-5.9c-8-1.9-16-3-24.1-3.8c-2.9-0.3-4.4,0.2-4.7,3.8
			c-1.2,11.5-0.6,22.9,1.2,34.3c6.5,42,29.6,69.9,70.3,83C88.5,219.8,89.8,220.6,91.6,219.6z"/>
		<path d="M149.9,3.2c13,0,23,10,23,23.1c-0.1,12.3-10.2,22.5-22.5,22.6c-12.6,0.1-23.1-10-23.2-22.4C127,13.3,136.9,3.2,149.9,3.2z
			"/>
		<path d="M210.4,219.5c-0.4,0.1-0.8,0.2-1.1,0.2c0.1-0.3,0.2-0.7,0.4-1C209.9,219,210.1,219.3,210.4,219.5z"/>
	</g>
	<g>
		<path d="M366.2,149.3c-3.3-0.2-6.6-0.6-10-1.3c0.4-2.1,0.7-4.6,0.9-7.7c0.2-3.1,0.3-5.8,0.3-8.3V99.5c0-6.4-0.6-11.5-1.7-15.1
			c0.7-0.5,1.8-0.9,3.5-1.1c1.7-0.3,3.1-0.4,4.4-0.4h16.6c6.8,0,11.8,1.1,15,3.2c4,2.6,6,7,6,13.1c0,3-0.6,5.8-1.7,8.3
			c-1.1,2.5-2.8,4.5-4.8,6c3.5,1.6,6.1,3.6,7.7,5.9c1.6,2.3,2.4,5.3,2.4,9.1c0,7.6-2.2,13.1-6.6,16.3c-4.4,3.3-11,4.9-19.7,4.9
			C373.5,149.6,369.5,149.5,366.2,149.3z M378.6,109.5c2.9,0,5.2-0.6,6.8-1.8c2-1.5,3-3.8,3-7c0-4.8-2.8-7.3-8.3-7.3h-10v7.4v8.6
			H378.6z M388,135.9c2.2-1.3,3.3-3.9,3.3-7.8c0-3.7-1.2-6.3-3.5-7.9c-1-0.6-2.3-1-3.9-1.3c-1.5-0.2-3.4-0.4-5.6-0.4H370v4.4
			c0,5.9,0.2,10.7,0.7,14.6c0.6,0,1.6,0,2.9,0.1c1.3,0.1,2.7,0.1,4.3,0.1C382.5,137.9,385.8,137.2,388,135.9z"/>
		<path d="M414.5,148.9c0.4-2.8,0.5-7,0.5-12.6l-0.1-38.2c0-2.9-0.2-5.7-0.5-8.5c-0.4-2.8-0.8-4.5-1.3-5.1c1.1-0.4,2.5-0.8,4-1
			c1.5-0.3,3-0.4,4.5-0.4s2.6,0.1,3.4,0.3c0.8,0.2,1.5,0.6,2,1.1c0.5,0.5,0.8,1.3,1,2.4c0.1,1.1,0.2,2.4,0.2,4c0,1.8,0,3.2-0.1,4.3
			l-0.1,4.8v23.8c0,5.4,0.1,10.1,0.5,14h10.2c4,0,6.9-0.1,8.8-0.3c1.9-0.2,3.5-0.7,4.7-1.4c0.7,1.1,1.2,2.4,1.7,3.9
			c0.5,1.5,0.7,2.9,0.7,4.3c0,2.1-0.6,3.4-1.9,4.1c-1.2,0.7-3.2,1-6,1C438.2,149.4,427.5,149.2,414.5,148.9z"/>
		<path d="M480.9,147.8c-4.3-1.8-7.9-4.3-10.9-7.6c-3-3.1-5.2-6.9-6.7-11.2c-1.5-4.3-2.3-8.9-2.3-13.9c0-5.1,0.9-9.8,2.6-14.1
			c1.7-4.3,4.2-8,7.3-11.1c3.1-3.1,6.7-5.4,10.8-7.1c4.1-1.6,8.6-2.4,13.5-2.4c5.1,0,9.7,0.8,14,2.4c4.3,1.6,7.9,4,10.9,7.1
			c3,3.1,5.3,6.8,6.9,11.1c1.6,4.3,2.4,9,2.4,14.1c0,5-0.7,9.7-2.2,13.9c-1.5,4.3-3.6,8-6.4,11.1c-3,3.3-6.7,5.8-10.9,7.6
			c-4.3,1.8-9.1,2.7-14.6,2.7C490,150.5,485.2,149.6,480.9,147.8z M503.6,136.7c2.5-1.3,4.7-3.1,6.5-5.4c1.7-2.2,3-4.8,3.9-7.8
			c0.9-3,1.4-6.2,1.4-9.5c0-3-0.5-5.9-1.5-8.6c-1-2.7-2.4-5.1-4.3-7.2c-1.9-2.1-4-3.8-6.5-4.9c-2.4-1.2-5-1.8-7.8-1.8
			c-2.8,0-5.4,0.6-7.8,1.7c-2.4,1.1-4.6,2.8-6.4,4.9c-1.8,2.1-3.2,4.5-4.3,7.2c-1,2.8-1.5,5.6-1.5,8.7c0,3.1,0.4,6.1,1.3,9
			c0.8,2.9,2.1,5.5,3.7,7.8c1.7,2.5,3.8,4.4,6.3,5.8c2.5,1.4,5.4,2.1,8.7,2.1C498.4,138.6,501.1,138,503.6,136.7z"/>
		<path d="M540.1,144c-2-2.3-3-4.5-3-6.7c0-2.7,1-5.1,2.9-7.2c1.8-1.8,3.6-2.9,5.4-3.4c1.6,3.7,3.6,6.9,6,9.5
			c2.4,2.6,5.4,3.9,8.7,3.9c3.7,0,6.5-0.8,8.3-2.5c1.8-1.7,2.7-3.9,2.7-6.7c0-2.8-1-5-3-6.6c-2-1.6-5-2.9-9-4
			c-7.3-1.9-12.7-5.4-16.4-10.6c-2.2-3.2-3.4-7-3.4-11.3c0-5.9,2.3-10.5,7-13.8c2.1-1.4,4.4-2.4,7.1-3.2c2.7-0.7,5.5-1.1,8.5-1.1
			c4.4,0,8.2,0.6,11.4,1.8c4.3,1.6,6.4,4.1,6.4,7.4c0,1.7-0.5,3.3-1.5,4.9c-1,1.6-2.3,2.8-3.9,3.5c-1.7-2.1-3.5-3.6-5.4-4.8
			c-1.9-1.1-4.3-1.7-7.1-1.7c-2.7,0-5,0.6-7.1,1.8c-2.1,1.2-3.1,3.1-3.1,5.5c0,2.2,1,4.2,3,5.9c2,1.7,4.9,3.1,8.7,4.1
			c7.1,1.9,12.3,4.6,15.8,8.2c3.4,3.6,5.2,8.3,5.2,14.2c0,6.3-2.2,11.4-6.5,15c-2.1,1.8-4.6,3.2-7.6,4.2c-2.9,1-6.2,1.5-9.7,1.5
			C551.9,151.8,545.1,149.2,540.1,144z"/>
		<path d="M595,144c-2-2.3-3-4.5-3-6.7c0-2.7,1-5.1,2.9-7.2c1.8-1.8,3.6-2.9,5.4-3.4c1.6,3.7,3.6,6.9,6,9.5c2.4,2.6,5.4,3.9,8.7,3.9
			c3.7,0,6.5-0.8,8.3-2.5c1.8-1.7,2.7-3.9,2.7-6.7c0-2.8-1-5-3-6.6c-2-1.6-5-2.9-9-4c-7.3-1.9-12.7-5.4-16.4-10.6
			c-2.2-3.2-3.4-7-3.4-11.3c0-5.9,2.3-10.5,7-13.8c2.1-1.4,4.4-2.4,7.1-3.2c2.7-0.7,5.5-1.1,8.5-1.1c4.4,0,8.2,0.6,11.4,1.8
			c4.3,1.6,6.4,4.1,6.4,7.4c0,1.7-0.5,3.3-1.5,4.9c-1,1.6-2.3,2.8-3.9,3.5c-1.7-2.1-3.5-3.6-5.4-4.8c-1.9-1.1-4.3-1.7-7.1-1.7
			c-2.7,0-5,0.6-7.1,1.8c-2.1,1.2-3.1,3.1-3.1,5.5c0,2.2,1,4.2,3,5.9c2,1.7,4.9,3.1,8.7,4.1c7.1,1.9,12.3,4.6,15.8,8.2
			c3.4,3.6,5.2,8.3,5.2,14.2c0,6.3-2.2,11.4-6.5,15c-2.1,1.8-4.6,3.2-7.6,4.2c-2.9,1-6.2,1.5-9.7,1.5
			C606.8,151.8,599.9,149.2,595,144z"/>
		<path d="M666.7,147.8c-4.3-1.8-7.9-4.3-10.9-7.6c-3-3.1-5.2-6.9-6.7-11.2c-1.5-4.3-2.3-8.9-2.3-13.9c0-5.1,0.9-9.8,2.6-14.1
			c1.7-4.3,4.2-8,7.3-11.1c3.1-3.1,6.7-5.4,10.8-7.1c4.1-1.6,8.6-2.4,13.5-2.4c5.1,0,9.7,0.8,14,2.4c4.3,1.6,7.9,4,10.9,7.1
			c3,3.1,5.3,6.8,6.9,11.1c1.6,4.3,2.4,9,2.4,14.1c0,5-0.7,9.7-2.2,13.9c-1.5,4.3-3.6,8-6.4,11.1c-3,3.3-6.7,5.8-10.9,7.6
			c-4.3,1.8-9.1,2.7-14.6,2.7C675.8,150.5,671,149.6,666.7,147.8z M689.4,136.7c2.5-1.3,4.7-3.1,6.5-5.4c1.7-2.2,3-4.8,3.9-7.8
			c0.9-3,1.4-6.2,1.4-9.5c0-3-0.5-5.9-1.5-8.6c-1-2.7-2.4-5.1-4.3-7.2c-1.9-2.1-4-3.8-6.5-4.9c-2.4-1.2-5-1.8-7.8-1.8
			c-2.8,0-5.4,0.6-7.8,1.7c-2.4,1.1-4.6,2.8-6.4,4.9c-1.8,2.1-3.2,4.5-4.3,7.2c-1,2.8-1.5,5.6-1.5,8.7c0,3.1,0.4,6.1,1.3,9
			c0.8,2.9,2.1,5.5,3.7,7.8c1.7,2.5,3.8,4.4,6.3,5.8c2.5,1.4,5.4,2.1,8.7,2.1C684.1,138.6,686.9,138,689.4,136.7z"/>
		<path d="M726.5,148.9c-1.1-0.8-1.7-2.2-1.7-4.2c0-0.7,0.1-2.4,0.4-4.9c0.5-4.8,0.8-9.2,0.8-13.2v-26.3c0-7.7-0.5-13.1-1.6-16
			c2.5-1,5.3-1.5,8.3-1.5c1.4,0,2.6,0.1,3.6,0.3c1,0.2,2,0.5,3,1c0.8,0.4,1.5,1,1.9,1.6c0.4,0.6,1.1,1.9,2.2,3.9l16,30.8l17.6-30.8
			c1.2-2.1,2.1-3.4,2.5-4.1c0.5-0.7,1-1.2,1.5-1.5c1.6-0.8,3.7-1.3,6.2-1.3c2.8,0,5.5,0.5,8.1,1.5c-0.5,1.2-0.9,3.3-1.1,6.3
			c-0.3,3-0.4,6.2-0.4,9.6v26.3c0,5.5,0.2,9.7,0.5,12.7s1.2,5.9,2.6,8.7c-0.4,0.5-1.7,1-3.9,1.5c-2.1,0.4-4.1,0.6-5.8,0.6
			c-2.8,0-4.7-0.3-5.9-1c-1.1-0.7-1.7-2.2-1.7-4.4c0-1.6,0.1-3.5,0.5-5.8c0.1-0.4,0.2-1.8,0.4-4.1c0.2-2.3,0.3-5.3,0.3-8.9v-10
			l1.5-13.6l-3.2,8.6l-11.2,18.9c-1.8,3.1-2.4,5-2,5.9c-2,0.6-4.1,0.9-6.2,0.9c-2.8,0-4.8-0.3-6-1c-0.7-0.4-1.9-2.3-3.8-5.8
			l-9.6-18.8l-3.2-8.7l1.5,13.7v8.7c0,5.1,0.2,9.7,0.5,13.6c0.4,3.9,1.3,7.2,2.7,9.9c-0.8,0.5-2.1,1-3.9,1.4
			c-1.7,0.4-3.6,0.6-5.6,0.6C729.6,150,727.6,149.6,726.5,148.9z"/>
		<path d="M808.9,144c-2-2.3-3-4.5-3-6.7c0-2.7,1-5.1,2.9-7.2c1.8-1.8,3.6-2.9,5.4-3.4c1.6,3.7,3.6,6.9,6,9.5
			c2.4,2.6,5.4,3.9,8.7,3.9c3.7,0,6.5-0.8,8.3-2.5c1.8-1.7,2.7-3.9,2.7-6.7c0-2.8-1-5-3-6.6c-2-1.6-5-2.9-9-4
			c-7.3-1.9-12.7-5.4-16.4-10.6c-2.2-3.2-3.4-7-3.4-11.3c0-5.9,2.3-10.5,7-13.8c2.1-1.4,4.4-2.4,7.1-3.2c2.7-0.7,5.5-1.1,8.5-1.1
			c4.4,0,8.2,0.6,11.4,1.8c4.3,1.6,6.4,4.1,6.4,7.4c0,1.7-0.5,3.3-1.5,4.9c-1,1.6-2.3,2.8-3.9,3.5c-1.7-2.1-3.5-3.6-5.4-4.8
			c-1.9-1.1-4.3-1.7-7.1-1.7c-2.7,0-5,0.6-7.1,1.8c-2.1,1.2-3.1,3.1-3.1,5.5c0,2.2,1,4.2,3,5.9c2,1.7,4.9,3.1,8.7,4.1
			c7.1,1.9,12.3,4.6,15.8,8.2c3.4,3.6,5.2,8.3,5.2,14.2c0,6.3-2.2,11.4-6.5,15c-2.1,1.8-4.6,3.2-7.6,4.2c-2.9,1-6.2,1.5-9.7,1.5
			C820.7,151.8,813.9,149.2,808.9,144z"/>
	</g>
</g>
</svg>
