<?xml version="1.0" encoding="utf-8"?>
<!-- Generator: Adobe Illustrator 23.0.5, SVG Export Plug-In . SVG Version: 6.00 Build 0)  -->
<svg version="1.1" id="Layer_1" xmlns="http://www.w3.org/2000/svg" xmlns:xlink="http://www.w3.org/1999/xlink" x="0px" y="0px"
	 viewBox="0 0 30 30" style="enable-background:new 0 0 30 30;" xml:space="preserve">
<g>
	<path d="M15,10.8c3.4,0,6.7,0,10.1,0c0.6,0,0.6,0,0.6,0.6c-0.1,2.9-0.3,5.8-0.4,8.7c-0.1,2.3-0.2,4.6-0.3,6.9c-0.1,1.8-1.2,3-3,3
		c-4.6,0-9.2,0-13.8,0c-1.8,0-3-1.1-3-3c-0.2-3.7-0.4-7.4-0.5-11c-0.1-1.5-0.1-3.1-0.2-4.6c0-0.6,0-0.6,0.6-0.6
		C8.3,10.8,11.6,10.8,15,10.8z M11.3,19.3c0-2,0-4,0-5.9c0-0.7-0.4-1.1-1-1.1c-0.6,0-0.9,0.4-0.9,1.1c0,1.6,0,3.3,0,4.9
		c0,2.3,0,4.6,0,6.9c0,0.6,0.3,1,0.8,1.1c0.6,0.1,1.1-0.4,1.1-1.1C11.3,23.2,11.3,21.2,11.3,19.3z M14.1,19.2c0,1.3,0,2.6,0,3.9
		c0,0.7,0,1.4,0,2.1c0,0.6,0.4,1,0.9,1c0.5,0,0.9-0.4,1-1c0-0.1,0-0.1,0-0.2c0-3.9,0-7.8,0-11.7c0-0.1,0-0.3,0-0.4
		c-0.1-0.4-0.3-0.7-0.8-0.7c-0.4-0.1-0.8,0.1-0.9,0.4c-0.1,0.2-0.1,0.4-0.1,0.7C14.1,15.3,14.1,17.3,14.1,19.2z M20.6,19.2
		c0-2,0-4,0-5.9c0-0.7-0.4-1.1-0.9-1.1c-0.6,0-0.9,0.4-0.9,1.1c0,1.1,0,2.2,0,3.3c0,2.8,0,5.7,0,8.5c0,0.4,0.1,0.8,0.5,1
		c0.7,0.4,1.4-0.1,1.4-1C20.6,23.2,20.6,21.2,20.6,19.2z"/>
	<path d="M10.3,3.8c0-0.5,0-1,0.1-1.5C10.6,1,11.7,0,13,0c1.3,0,2.6,0,3.9,0c1.5,0,2.7,1.2,2.7,2.7c0,0.3,0,0.6,0,1
		c0.2,0,0.4,0,0.5,0c1.5,0,3,0,4.5,0c1.5,0,2.5,1,2.5,2.5c0,0.5,0,1,0,1.5c0,0.8-0.3,1.2-1.2,1.2c-6.3,0-12.6,0-18.8,0
		c-1.1,0-2.2,0-3.2,0c-0.8,0-1.1-0.3-1.1-1.1c0-0.5,0-1,0-1.5c0-1.6,1-2.5,2.5-2.5c1.5,0,2.9,0,4.4,0C9.9,3.8,10.1,3.8,10.3,3.8z
		 M17.8,3.7c0-0.3,0-0.6,0-0.9c0-0.6-0.4-0.9-0.9-1c-1.2,0-2.5,0-3.7,0c-0.5,0-0.9,0.3-0.9,0.8c0,0.3,0,0.7,0,1.1
		C14.1,3.7,15.9,3.7,17.8,3.7z"/>
</g>
</svg>
