<?xml version="1.0" encoding="utf-8"?>
<!-- Generator: Adobe Illustrator 23.0.5, SVG Export Plug-In . SVG Version: 6.00 Build 0)  -->
<svg version="1.1" id="Layer_1" xmlns="http://www.w3.org/2000/svg" xmlns:xlink="http://www.w3.org/1999/xlink" x="0px" y="0px"
	 viewBox="0 0 30 30" style="enable-background:new 0 0 30 30;" xml:space="preserve">
<g>
	<path d="M12.5,30c-2.9,0-5.8-0.1-8.8,0C2.1,30,0,28.6,0,26.2c0-2.8,0-5.7,0-8.5c0-2.9,0-5.8,0-8.8C0,6.6,1.6,5,3.9,5
		c3.2,0,6.4,0,9.6,0C14.4,5,15,5.5,15,6.3c0,0.8-0.6,1.3-1.5,1.3c-3.2,0-6.3,0-9.5,0C3,7.5,2.5,8.1,2.5,9c0,5.7,0,11.4,0,17.1
		c0,1,0.5,1.5,1.5,1.5c5.7,0,11.4,0,17.1,0c1,0,1.5-0.5,1.5-1.5c0-3.2,0-6.4,0-9.7c0-0.9,0.6-1.4,1.4-1.4c0.7,0.1,1.1,0.6,1.1,1.4
		c0,1.3,0,2.6,0,3.8c0,2,0,3.9,0,5.9c0,1.9-1.2,3.4-2.9,3.8c-0.2,0-0.4,0.1-0.6,0.1C18.5,30,15.5,30,12.5,30z"/>
	<path d="M21.6,4.1C23,5.5,24.5,7,26,8.5c-0.1,0.1-0.2,0.3-0.4,0.4c-3,3-6.1,6-9.1,9.1c-0.4,0.4-0.9,0.6-1.4,0.7
		c-1.2,0.2-2.4,0.5-3.6,0.7c-0.6,0.1-1-0.1-0.9-0.7c0.3-1.5,0.6-2.9,0.9-4.4c0-0.1,0.1-0.3,0.2-0.4c3.2-3.2,6.4-6.4,9.7-9.7
		C21.5,4.1,21.6,4.1,21.6,4.1z"/>
	<path d="M27.4,7c-1.5-1.5-2.9-2.9-4.3-4.3c0.6-0.7,1.2-1.4,1.9-2c1.2-1,3.1-0.8,4.2,0.4c1.1,1.2,1.1,3,0,4.2
		C28.6,5.9,28,6.5,27.4,7z"/>
</g>
</svg>
