<?xml version="1.0" encoding="utf-8"?>
<!-- Generator: Adobe Illustrator 23.0.5, SVG Export Plug-In . SVG Version: 6.00 Build 0)  -->
<svg version="1.1" id="Layer_1" xmlns="http://www.w3.org/2000/svg" xmlns:xlink="http://www.w3.org/1999/xlink" x="0px" y="0px"
	 viewBox="0 0 40 40" style="enable-background:new 0 0 40 40;" xml:space="preserve">
<g>
	<path d="M20,0c11,0,20,9,20,20c0,11-9,20-20,20C9,40,0,31,0,20C0,9,9,0,20,0z M20,37.6c9.7,0,17.6-7.9,17.7-17.6
		c0-9.8-7.9-17.7-17.6-17.7C10.3,2.3,2.4,10.2,2.4,20C2.3,29.7,10.2,37.6,20,37.6z"/>
	<path d="M26.7,10.2c-0.1,0.6-0.2,1.1-0.2,1.5c0,0.4,0,0.9-0.1,1.3c-0.2,0.9-0.3,1.8-0.7,2.6c-0.5,1.1-1.2,2.1-1.8,3.1
		c-0.1,0.2-0.1,0.6-0.2,0.9c-0.6,1.5-1.6,2.8-3.1,3.5c-0.3,0.1-0.8,0.2-1.1,0c-1.7-0.9-2.8-2.2-3.2-4.1c0-0.2-0.2-0.4-0.3-0.5
		c-0.7-1.5-1.5-2.9-2.2-4.4c-0.2-0.4-0.1-0.9-0.1-1.4c0-0.3,0-0.6-0.1-0.9c-0.5-1.9,0-3.7,1.1-5.3c0.9-1.3,2.4-1.9,3.9-2.1
		c1.6-0.2,3.2-0.1,4.8,0.6C25.7,6,26.4,8,26.7,10.2z"/>
	<path d="M21.8,24.8c0.6,0.8,1.1,1.4,1.7,2.2c0.4-2.2,0.8-4.2,1.1-6.3c1.3,1.2,2.9,1.8,4.5,2.3c2,0.6,3.3,1.8,4.1,3.7
		c0.5,1,0.4,1.8-0.3,2.7c-2.6,3.4-5.9,5.5-10.1,6.4c-0.2,0-0.5,0-0.8,0.1c0-0.2-0.1-0.3-0.1-0.5c-0.3-2.8-0.6-5.7-0.8-8.5
		C21.2,26.2,21.6,25.6,21.8,24.8z"/>
	<path d="M17.8,35.9c-1.6-0.1-3-0.6-4.3-1.2c-3-1.3-5.3-3.4-7.1-6.1c-0.2-0.2-0.2-0.7-0.1-0.9c0.3-0.7,0.6-1.3,0.9-2
		c0.6-1.2,1.6-1.9,2.9-2.3c0.7-0.2,1.4-0.4,2-0.7c1.1-0.5,2.2-1.1,3.2-1.6c0.3,1.9,0.7,4,1.1,6.1c0.6-0.8,1.1-1.4,1.5-2
		c1.1,1.1,0.5,2.4,0.4,3.6c-0.2,2.3-0.4,4.5-0.6,6.8C17.9,35.5,17.9,35.6,17.8,35.9z"/>
</g>
</svg>
