<?xml version="1.0" encoding="utf-8"?>
<!-- Generator: Adobe Illustrator 23.0.5, SVG Export Plug-In . SVG Version: 6.00 Build 0)  -->
<svg version="1.1" id="Layer_1" xmlns="http://www.w3.org/2000/svg" xmlns:xlink="http://www.w3.org/1999/xlink" x="0px" y="0px"
	 viewBox="0 0 50 50" style="enable-background:new 0 0 50 50;" xml:space="preserve">
<g>
	<path d="M30.5,40.1c-0.4,0-0.6,0-0.9,0c-9.2,0-18.3,0-27.5,0C0.5,40.1,0,39.7,0,38C0,26,0,14,0,2c0-1.5,0.5-2,2-2
		c8.9,0,17.8,0,26.7,0c1.3,0,1.9,0.5,1.9,1.8c0,12.5,0,25,0,37.6C30.5,39.6,30.5,39.8,30.5,40.1z M11.1,13.8C10,13.7,9,13.6,8,13.6
		c-1,0-1.6,0.6-1.6,1.6c0,0.8,0,1.6,0.2,2.4c0.5,2.9,2,5,5,5.9c0.7,0.2,1.4,0.3,2.2,0.5c0,0.3,0,0.6,0,0.8c0,1.7,0,3.4,0,5.1
		c0,0.4,0.1,0.8,0.3,1.2c0.3,0.6,1,0.8,1.6,0.6c0.7-0.2,1-0.7,1-1.5c0-2.1,0-4.2,0-6.3c0.4-0.1,0.7-0.1,1.1-0.2
		c2.4-0.4,4.4-1.5,5.5-3.9c0.6-1.4,0.9-2.9,0.8-4.5c0-1.3-0.5-1.8-1.9-1.8c-0.9,0-1.8,0.1-2.8,0.2c-0.5-1.9-1.5-3.4-2.9-4.8
		c-0.9-0.8-1.7-0.8-2.5,0C12.6,10.3,11.6,11.9,11.1,13.8z"/>
	<path d="M22.8,49.9c1.3-0.9,2.7-1.9,4-2.8c1.9-1.4,3.8-2.7,5.7-4c0.6-0.4,0.9-1,0.9-1.8c0-1.5,0-3,0-4.6c0.3,0,0.6,0,0.9,0
		c2.6,0,5.1,0,7.7,0c1,0,1.6-0.5,1.6-1.4c0-0.9-0.5-1.4-1.6-1.5c-2.5,0-5,0-7.5,0c-0.3,0-0.6,0-1,0c0-1,0-1.9,0-2.9
		c0.3,0,0.6,0,0.9,0c2.5,0,5,0,7.5,0c1,0,1.6-0.4,1.7-1.1c0.2-1-0.5-1.8-1.6-1.8c-2.6,0-5.1,0-7.7,0c-0.3,0-0.6,0-0.9,0
		c0-1,0-1.9,0-2.9c0.3,0,0.6,0,0.9,0c2.5,0,5.1,0,7.6,0c1.1,0,1.7-0.5,1.7-1.4c0-1-0.5-1.5-1.7-1.5c-2.5,0-5,0-7.5,0
		c-0.3,0-0.6,0-1,0c0-1,0-1.9,0-2.9c0.3,0,0.6,0,0.8,0c2.5,0,5,0,7.5,0c1,0,1.6-0.4,1.8-1.1c0.2-1-0.4-1.8-1.5-1.8
		c-2.6,0-5.1,0-7.7,0c-0.3,0-0.6,0-0.9,0c0-2.1,0-4.1,0-6.2c0.3,0,0.6,0,0.8,0c4.6,0,9.1,0,13.7,0c1.5,0,2,0.5,2,2
		C50,23.9,50,36,50,48c0,1.5-0.5,2-1.9,2c-8.1,0-16.3,0-24.4,0c-0.2,0-0.5,0-0.7,0C22.9,50,22.9,49.9,22.8,49.9z"/>
	<path d="M19.5,48.6c0-1.9,0-3.7,0-5.5c2.5,0,5,0,7.8,0C24.6,45,22.1,46.8,19.5,48.6z"/>
	<path d="M9.5,16.6c2.4-0.1,4.2,1.7,4.3,4.2C11.5,21.2,9.5,19.3,9.5,16.6z"/>
	<path d="M21,16.6c0,2.8-1.8,4.2-4.2,4.3C16.8,18.4,18.3,16.8,21,16.6z"/>
	<path d="M15.5,12c0.4,0.8,0.8,1.5,1.1,2.4c0.4,1.1-0.8,1.3-1.2,2.1c-0.4-0.4-0.9-0.8-1.2-1.2c-0.2-0.2-0.2-0.6-0.2-0.8
		c0.3-0.8,0.7-1.6,1.1-2.4C15.2,12,15.3,12,15.5,12z"/>
</g>
</svg>
