<?xml version="1.0" encoding="utf-8"?>
<!-- Generator: Adobe Illustrator 23.0.5, SVG Export Plug-In . SVG Version: 6.00 Build 0)  -->
<svg version="1.1" id="Layer_1" xmlns="http://www.w3.org/2000/svg" xmlns:xlink="http://www.w3.org/1999/xlink" x="0px" y="0px"
	 viewBox="0 0 50 50" style="enable-background:new 0 0 50 50;" xml:space="preserve">
<g>
	<path d="M40.7,15.5c-0.1,3.6-1.2,6.6-2.7,9.6c-2.9,6-6.8,11.3-10.9,16.4c-0.2,0.2-0.4,0.5-0.5,0.7c-1,1.1-2.2,1.2-3.1,0
		c-2.7-3.6-5.5-7.2-8-11c-2.4-3.5-4.4-7.3-5.5-11.4c-2.5-8.5,3-17.7,11.7-19.5c9-1.9,17.4,3.8,18.9,12.8
		C40.7,14,40.7,14.9,40.7,15.5z M25,22c3.6,0,6.5-2.9,6.5-6.4c0-3.5-2.9-6.4-6.4-6.4c-3.5,0-6.5,2.9-6.5,6.4
		C18.6,19.2,21.4,22,25,22z"/>
	<path d="M25.6,50c-5.5,0-10.3-0.5-14.8-2.3c-1.4-0.5-2.7-1.3-3.9-2.1c-3.2-2.4-3.1-6,0-8.5c1.8-1.4,3.8-2.2,5.9-2.8
		c0.9-0.3,1.8,0.3,2.1,1c0.3,0.9-0.1,1.8-1,2.2c-1.1,0.5-2.3,0.9-3.4,1.4c-0.7,0.3-1.3,0.8-1.9,1.3c-0.9,0.8-0.9,1.5,0,2.4
		c1.3,1.2,2.9,1.9,4.6,2.4c5,1.6,10.2,1.8,15.3,1.5c3.3-0.2,6.5-0.8,9.5-2c1.1-0.5,2.1-1.1,3-1.8c1-0.8,1-1.7,0-2.6
		c-1.4-1.2-3.1-1.9-4.8-2.4c-1-0.3-1.4-0.9-1.4-1.7c0-1.1,1-2,2-1.7c2.4,0.7,4.8,1.6,6.7,3.4c2.4,2.3,2.3,5.2-0.1,7.5
		c-1.8,1.7-4.1,2.6-6.4,3.3C33.2,49.6,29.1,50,25.6,50z"/>
</g>
</svg>
