<?xml version="1.0" encoding="utf-8"?>
<!-- Generator: Adobe Illustrator 23.0.5, SVG Export Plug-In . SVG Version: 6.00 Build 0)  -->
<svg version="1.1" id="Layer_1" xmlns="http://www.w3.org/2000/svg" xmlns:xlink="http://www.w3.org/1999/xlink" x="0px" y="0px"
	 viewBox="0 0 50 50" style="enable-background:new 0 0 50 50;" xml:space="preserve">
<g>
	<path d="M24.9,50C11.2,50,0,38.8,0,24.9C0,11.1,11.2,0,25.1,0C38.8,0,50,11.3,50,25C50,38.8,38.8,50,24.9,50z M46,25
		C45.8,13.5,36.9,4.2,25.2,4C13.6,3.9,4.1,13.4,4,24.9C4,36.4,13.4,45.9,24.9,46C36.4,46,45.9,36.6,46,25z"/>
	<path d="M7.5,25c0-9.6,7.8-17.5,17.4-17.5c9.7,0,17.6,7.8,17.5,17.6c0,9.6-7.9,17.4-17.6,17.4C15.3,42.5,7.5,34.6,7.5,25z
		 M23.3,19.1c0,1.9-0.1,3.8,0,5.7c0,0.5,0.3,1.2,0.7,1.6c2.1,1.7,4.3,3.3,6.5,4.9c0.4,0.3,1,0.4,1.5,0.3c0.7-0.1,1.1-0.6,1.2-1.3
		c0.1-0.7-0.2-1.2-0.7-1.7c-1.8-1.3-3.6-2.7-5.3-4c-0.4-0.3-0.6-0.6-0.6-1.2c0-3.3,0-6.6,0-9.8c0-1.2-0.7-2-1.7-2
		c-1,0-1.7,0.8-1.7,2C23.3,15.5,23.3,17.3,23.3,19.1z"/>
</g>
</svg>
