<?xml version="1.0" encoding="utf-8"?>
<!-- Generator: Adobe Illustrator 23.0.5, SVG Export Plug-In . SVG Version: 6.00 Build 0)  -->
<svg version="1.1" id="Layer_1" xmlns="http://www.w3.org/2000/svg" xmlns:xlink="http://www.w3.org/1999/xlink" x="0px" y="0px"
	 viewBox="0 0 50 50" style="enable-background:new 0 0 50 50;" xml:space="preserve">
<g>
	<path d="M25.7,41.8c0-1.7,0-3.4,0-5.2c2.3,0.3,4.6,0.2,6.4-1.4c1.5-1.3,2.2-3,2.7-4.8c-2.6-0.4-7.1,0.3-9.2,3.8c0-1.5,0-2.9,0-4.2
		c0-0.1,0.2-0.3,0.3-0.4c2.7-3.1,2.4-6.7-0.1-9.8c-0.2-0.3-0.5-0.6-0.8-0.9c-3,2.7-4.1,6.9-1.3,10.3c0.4,0.5,0.6,1.1,0.6,1.7
		c0,1,0,2,0,3.3c-2.2-3.5-5.6-4-9.1-4c0.5,3.4,3.3,7.5,9,6.5c0,1.7,0,3.4,0,5.1c-0.8,0.4-1.7,0.6-2.4,1.1c-1.2,0.7-1.9,1.7-2.3,3
		c-0.2,0.5-0.4,0.7-0.9,0.7c-2.6,0-5.2,0-7.8,0c-1,0-1.3-0.2-1.3-1.3c0-6.5,0-13.1,0-19.6c0-0.3,0.2-0.8,0.5-1
		c4.8-3.4,9.6-6.8,14.4-10.2c0.4-0.3,0.7-0.3,1.1,0c4.8,3.4,9.5,6.7,14.3,10c0.4,0.3,0.6,0.6,0.6,1.2c0,6.5,0,12.9,0,19.4
		c0,1.2-0.2,1.4-1.3,1.4c-2.6,0-5.2,0-7.7,0c-0.4,0-0.7,0-0.9-0.5c-0.7-2.2-2.3-3.5-4.5-4C25.9,41.8,25.8,41.8,25.7,41.8z"/>
	<path d="M0,22.9c0.1-1.4,0.7-2.4,1.8-3.2c4.3-3,8.6-6,12.9-9c3.3-2.3,6.5-4.5,9.8-6.9c0.5-0.3,0.8-0.3,1.3,0
		C33,9.1,40.4,14.3,47.8,19.4c1.4,1,2.4,2.1,2.1,3.9c-0.3,2.8-3.4,4.1-5.7,2.5c-4-2.8-8-5.6-12-8.4c-2.2-1.5-4.4-3-6.5-4.6
		c-0.5-0.4-0.9-0.4-1.5,0c-6.1,4.3-12.1,8.5-18.2,12.8c-1.3,0.9-2.6,1.2-4,0.6C0.7,25.5,0.1,24.3,0,22.9z"/>
	<path d="M21,45.6c0.9-1.6,2.2-2.4,3.9-2.4c1.7,0,3.1,0.8,4,2.4C26.3,45.6,23.7,45.6,21,45.6z"/>
</g>
</svg>
