<?xml version="1.0" encoding="utf-8"?>
<!-- Generator: Adobe Illustrator 23.0.5, SVG Export Plug-In . SVG Version: 6.00 Build 0)  -->
<svg version="1.1" id="Layer_1" xmlns="http://www.w3.org/2000/svg" xmlns:xlink="http://www.w3.org/1999/xlink" x="0px" y="0px"
	 viewBox="0 0 50 50" style="enable-background:new 0 0 50 50;" xml:space="preserve">
<g>
	<path d="M16.2,26c0-1.6,0-3.2,0-4.7c0-0.2-0.1-0.3-0.2-0.5c-1.8-2.7-1.7-5.5-0.8-8.5c0.2-0.5,0.5-1,0.8-1.5c0.7-0.9,1.4-0.9,2.1,0
		c0.9,1.1,1.2,2.5,1.3,3.8c0.2,2.2,0,4.3-1.4,6.2c-0.1,0.2-0.2,0.5-0.2,0.7c0,1.6,0,3.3,0,4.9c0,0.4,0.2,0.8,0.5,1
		c1.5,1,2,2.1,1.6,4c-1.1,5.6-1,11.2,0.1,16.9c-2.9,0-5.7,0-8.6,0c0.7-7.1-0.1-13.9-3.3-20.4c1.9,0.7,3.4,1.6,4.9,2.8
		c0.3,0.2,0.5,0.6,0.8,0.7c0.3,0.2,0.7,0.2,1.1,0.4c0.1-0.4,0.4-0.9,0.3-1.2c-0.6-1.7-1.3-3.4-1.9-5.1c-0.1-0.3-0.3-0.7-0.6-1.2
		C14,25,15.1,25.5,16.2,26z"/>
	<path d="M25,20.8c4.2,8.8,4.9,18.1,3.4,27.6c-2.3,0-4.5,0-6.8,0C20.1,38.9,20.8,29.6,25,20.8z"/>
	<path d="M37.1,24.5c-0.7,1.9-1.4,3.7-2.1,5.5c-0.1,0.2-0.2,0.5-0.2,0.7c0,0.4,0.1,0.9,0.3,1.1c0.2,0.1,0.8,0,1.1-0.3
		c1.5-1.4,3.3-2.5,5.2-3.3c0.1-0.1,0.3-0.1,0.5-0.2c-3.2,6.5-4,13.3-3.3,20.4c-2.9,0-5.7,0-8.5,0c0.2-2.1,0.4-4.2,0.6-6.2
		c0.3-4.1-0.1-8.1-0.8-12.1c-0.1-0.3,0-0.8,0.2-1.1C32,27,34.4,25.6,37.1,24.5z"/>
	<path d="M0,38.4c1.9,0.7,3.3,1.6,4.4,3.1c0.3,0.4,0.6,0.8,1.2,0.6c0.6-0.3,0.5-0.8,0.4-1.3c-0.4-1.7-0.7-3.4-1-5.2
		c1.7,0.5,3.3,1.4,4.5,2.6c0.2,0.2,0.3,0.6,0.3,0.9c0.3,3,0.4,6.1,0,9.2c-3.1,0-6.2,0-9.4,0C1.5,45.1,1,41.8,0,38.4z"/>
	<path d="M45,35.6c-0.4,1.8-0.7,3.5-1.1,5.3c-0.1,0.5-0.1,1.1,0.5,1.2c0.3,0.1,0.9-0.2,1.1-0.5c1.2-1.4,2.6-2.5,4.5-3.1
		c-0.9,3.3-1.5,6.6-0.4,9.9c-3.2,0-6.2,0-9.4,0c-0.1-0.7-0.2-1.5-0.2-2.2c0-2.3,0.1-4.6,0.2-6.9c0-0.7,0.3-1.2,0.8-1.6
		C42.2,36.8,43.5,36.1,45,35.6z"/>
	<path d="M45.3,6.7c-0.2,0.7,0.1,1.1,0.9,1.5c1.2,0.6,1.6,2.2,0.8,3.4c-0.8,1.2-2.4,1.5-3.5,0.5c-1.3-1.2-2.6-2.5-3.8-3.8
		c-0.9-1-0.9-2.6-0.1-3.8c0.8-1.2,2.3-1.7,3.6-1.2C44.6,3.8,45.3,4.9,45.3,6.7z M43.6,7c0-0.1,0-0.3,0-0.4c-0.5-0.4-1-0.8-1.5-1.1
		c-0.1,0-0.7,0.7-0.7,0.8c0.4,0.5,0.8,1,1.3,1.3C42.8,7.7,43.3,7.2,43.6,7z"/>
	<path d="M33.3,11.9c0-1.4,0.6-2.3,1.8-2.9c1.2-0.6,2.4-0.4,3.4,0.5c1.3,1.2,2.5,2.4,3.7,3.7c1,1.1,0.8,2.7-0.4,3.5
		c-1.1,0.8-2.8,0.5-3.4-0.8c-0.4-0.8-0.9-0.9-1.7-0.8C34.9,15.3,33.3,13.8,33.3,11.9z M37.2,13.4c0.2-0.3,0.6-0.8,0.5-0.9
		c-0.3-0.5-0.8-0.9-1.3-1.3c-0.3,0.3-0.7,0.5-0.8,0.8C35.6,12.4,36.6,13.3,37.2,13.4z"/>
	<path d="M13.7,20.1c-1.8-1.7-3.2-3.8-3.6-6.3c-0.1-0.7,0-1.4,0.8-1.8c0.5-0.2,2.2,0.4,2.4,0.8c0.1,0.1,0,0.3,0,0.4
		C12.9,15.5,13,17.8,13.7,20.1z"/>
	<path d="M20.5,19.9c0.6-2.2,0.7-4.4,0.3-6.7c0-0.1-0.1-0.3,0-0.3c0.7-0.3,1.4-0.8,2.2-0.9c0.7-0.1,1.1,0.6,1,1.3
		c0,0.8-0.2,1.6-0.5,2.3C22.9,17.2,21.8,18.7,20.5,19.9z"/>
	<path d="M37.2,7.3c-0.5-0.2-1-0.3-1.5-0.6c-0.8-0.6-1.7-0.7-2.6-0.4c-0.6,0.2-1.1,0.3-1.3-0.4c-0.2-0.7,0.3-1,0.8-1.1
		c0.6-0.2,1.3-0.2,2-0.4c0.1-0.6,0.2-1.3,0.4-2c0.1-0.6,0.5-1,1.1-0.8c0.7,0.2,0.6,0.7,0.4,1.3c-0.3,0.9-0.2,1.8,0.4,2.6
		c0.3,0.4,0.4,1,0.6,1.5C37.4,7.1,37.3,7.2,37.2,7.3z"/>
</g>
</svg>
